<svg xmlns="http://www.w3.org/2000/svg" viewBox="0 0 841.89 841.89"><defs><style>.cls-1{fill:#13202f;stroke:#000;stroke-miterlimit:10;}.cls-2{fill:#90edef;}</style></defs><g id="titleIcon"><circle class="cls-1" cx="420.94" cy="420.94" r="410.38"/><path class="cls-2" d="M205.41,540.47H643.17a26.84,26.84,0,0,0,26.77-26.76V229.88a26.83,26.83,0,0,0-26.77-26.76H205.41a26.83,26.83,0,0,0-26.78,26.76V513.71A26.85,26.85,0,0,0,205.41,540.47Zm8-302.57H635.14V505.65H213.45Z"/><path class="cls-2" d="M135.12,584v6.68a21.48,21.48,0,0,0,21.44,21.43H685.33a21.48,21.48,0,0,0,21.44-21.43V584Z"/><path class="cls-2" d="M480,377.47a40.85,40.85,0,0,1,22-37.06A47.54,47.54,0,0,0,465,320.64c-15.72-1.24-32.75,9.14-39.05,9.14s-21.87-8.65-33.73-8.65c-24.71,0-50.78,19.64-50.78,58.81a111.31,111.31,0,0,0,6.3,35.83c5.44,15.81,25.82,55.48,47.07,54.86,11.12,0,19-7.91,33.49-7.91s21.25,7.91,33.73,7.91c21.37,0,39.91-36.45,45.22-52.64a43.74,43.74,0,0,1-27.15-40.52Zm-24.71-72.53a41.62,41.62,0,0,0,10.25-32,46.79,46.79,0,0,0-29.9,15.44A42.12,42.12,0,0,0,424.17,320a37.07,37.07,0,0,0,30.89-15.08Z"/></g></svg>